<svg width="50" height="50" viewBox="0 0 50 50" fill="none" xmlns="http://www.w3.org/2000/svg">
<mask id="mask0_132_78" style="mask-type:alpha" maskUnits="userSpaceOnUse" x="0" y="0" width="50" height="50">
<rect width="50" height="50" fill="#D9D9D9"/>
</mask>
<g mask="url(#mask0_132_78)">
<path d="M16.6667 35.4167C17.2569 35.4167 17.7517 35.217 18.151 34.8177C18.5503 34.4184 18.75 33.9236 18.75 33.3333C18.75 32.7431 18.5503 32.2483 18.151 31.849C17.7517 31.4497 17.2569 31.25 16.6667 31.25C16.0764 31.25 15.5816 31.4497 15.1823 31.849C14.783 32.2483 14.5833 32.7431 14.5833 33.3333C14.5833 33.9236 14.783 34.4184 15.1823 34.8177C15.5816 35.217 16.0764 35.4167 16.6667 35.4167ZM16.6667 27.0833C17.2569 27.0833 17.7517 26.8837 18.151 26.4844C18.5503 26.0851 18.75 25.5903 18.75 25C18.75 24.4097 18.5503 23.9149 18.151 23.5156C17.7517 23.1163 17.2569 22.9167 16.6667 22.9167C16.0764 22.9167 15.5816 23.1163 15.1823 23.5156C14.783 23.9149 14.5833 24.4097 14.5833 25C14.5833 25.5903 14.783 26.0851 15.1823 26.4844C15.5816 26.8837 16.0764 27.0833 16.6667 27.0833ZM16.6667 18.75C17.2569 18.75 17.7517 18.5503 18.151 18.151C18.5503 17.7517 18.75 17.2569 18.75 16.6667C18.75 16.0764 18.5503 15.5816 18.151 15.1823C17.7517 14.783 17.2569 14.5833 16.6667 14.5833C16.0764 14.5833 15.5816 14.783 15.1823 15.1823C14.783 15.5816 14.5833 16.0764 14.5833 16.6667C14.5833 17.2569 14.783 17.7517 15.1823 18.151C15.5816 18.5503 16.0764 18.75 16.6667 18.75ZM22.9167 35.4167H35.4167V31.25H22.9167V35.4167ZM22.9167 27.0833H35.4167V22.9167H22.9167V27.0833ZM22.9167 18.75H35.4167V14.5833H22.9167V18.75ZM10.4167 43.75C9.27083 43.75 8.28993 43.342 7.47396 42.526C6.65799 41.7101 6.25 40.7292 6.25 39.5833V10.4167C6.25 9.27083 6.65799 8.28993 7.47396 7.47396C8.28993 6.65799 9.27083 6.25 10.4167 6.25H39.5833C40.7292 6.25 41.7101 6.65799 42.526 7.47396C43.342 8.28993 43.75 9.27083 43.75 10.4167V39.5833C43.75 40.7292 43.342 41.7101 42.526 42.526C41.7101 43.342 40.7292 43.75 39.5833 43.75H10.4167ZM10.4167 39.5833H39.5833V10.4167H10.4167V39.5833Z" fill="#72AFD3"/>
</g>
</svg>
