<svg width="50" height="50" viewBox="0 0 50 50" fill="none" xmlns="http://www.w3.org/2000/svg">
<mask id="mask0_132_92" style="mask-type:alpha" maskUnits="userSpaceOnUse" x="0" y="0" width="50" height="50">
<rect width="50" height="50" fill="#D9D9D9"/>
</mask>
<g mask="url(#mask0_132_92)">
<path d="M22.9167 20.8332C24.0625 20.8332 25.0434 20.4252 25.8594 19.6092C26.6753 18.7932 27.0833 17.8123 27.0833 16.6665C27.0833 15.5207 26.6753 14.5398 25.8594 13.7238C25.0434 12.9078 24.0625 12.4998 22.9167 12.4998C21.7708 12.4998 20.7899 12.9078 19.974 13.7238C19.158 14.5398 18.75 15.5207 18.75 16.6665C18.75 17.8123 19.158 18.7932 19.974 19.6092C20.7899 20.4252 21.7708 20.8332 22.9167 20.8332ZM22.9167 29.1665C24.4792 29.1665 25.9462 28.8366 27.3177 28.1769C28.6892 27.5172 29.8785 26.5797 30.8854 25.3644C29.6701 24.5658 28.3941 23.9582 27.0573 23.5415C25.7205 23.1248 24.3403 22.9165 22.9167 22.9165C21.4931 22.9165 20.1128 23.1248 18.776 23.5415C17.4392 23.9582 16.1632 24.5658 14.9479 25.3644C15.9549 26.5797 17.1441 27.5172 18.5156 28.1769C19.8872 28.8366 21.3542 29.1665 22.9167 29.1665ZM42.9167 43.7498L33.125 33.9582C31.7014 35.0693 30.1302 35.9373 28.4115 36.5623C26.6927 37.1873 24.8611 37.4998 22.9167 37.4998C18.2639 37.4998 14.3229 35.8853 11.0938 32.6561C7.86458 29.4269 6.25 25.4859 6.25 20.8332C6.25 16.1804 7.86458 12.2394 11.0938 9.01025C14.3229 5.78109 18.2639 4.1665 22.9167 4.1665C27.5694 4.1665 31.5104 5.78109 34.7396 9.01025C37.9688 12.2394 39.5833 16.1804 39.5833 20.8332C39.5833 22.7776 39.2708 24.6092 38.6458 26.328C38.0208 28.0467 37.1528 29.6179 36.0417 31.0415L45.8333 40.8332L42.9167 43.7498ZM22.9167 33.3332C26.3889 33.3332 29.3403 32.1179 31.7708 29.6873C34.2014 27.2568 35.4167 24.3054 35.4167 20.8332C35.4167 17.3609 34.2014 14.4096 31.7708 11.979C29.3403 9.54845 26.3889 8.33317 22.9167 8.33317C19.4444 8.33317 16.4931 9.54845 14.0625 11.979C11.6319 14.4096 10.4167 17.3609 10.4167 20.8332C10.4167 24.3054 11.6319 27.2568 14.0625 29.6873C16.4931 32.1179 19.4444 33.3332 22.9167 33.3332Z" fill="#72AFD3"/>
</g>
</svg>
