<svg width="50" height="50" viewBox="0 0 50 50" fill="none" xmlns="http://www.w3.org/2000/svg">
<mask id="mask0_132_98" style="mask-type:alpha" maskUnits="userSpaceOnUse" x="0" y="0" width="50" height="50">
<rect width="50" height="50" fill="#D9D9D9"/>
</mask>
<g mask="url(#mask0_132_98)">
<path d="M8.33325 45.8332V33.3332H14.5833V45.8332H8.33325ZM18.7499 45.8332V21.0415C17.0138 21.6318 15.8853 22.7169 15.3645 24.2967C14.8437 25.8766 14.5833 27.4998 14.5833 29.1665H10.4166C10.4166 24.7221 11.7187 21.1804 14.3228 18.5415C16.927 15.9026 20.486 14.5832 24.9999 14.5832C28.4721 14.5832 31.0763 13.7238 32.8124 12.005C34.5485 10.2863 35.4166 7.67345 35.4166 4.1665H39.5833C39.5833 7.22206 38.9322 9.95644 37.6301 12.3696C36.328 14.7828 34.2013 16.4929 31.2499 17.4998V45.8332H27.0833V33.3332H22.9166V45.8332H18.7499ZM24.9999 12.4998C23.8541 12.4998 22.8732 12.0919 22.0572 11.2759C21.2412 10.4599 20.8333 9.479 20.8333 8.33317C20.8333 7.18734 21.2412 6.20643 22.0572 5.39046C22.8732 4.57449 23.8541 4.1665 24.9999 4.1665C26.1458 4.1665 27.1267 4.57449 27.9426 5.39046C28.7586 6.20643 29.1666 7.18734 29.1666 8.33317C29.1666 9.479 28.7586 10.4599 27.9426 11.2759C27.1267 12.0919 26.1458 12.4998 24.9999 12.4998Z" fill="#1C1B1F"/>
</g>
</svg>
