<svg width="50" height="50" viewBox="0 0 50 50" fill="none" xmlns="http://www.w3.org/2000/svg">
<mask id="mask0_132_110" style="mask-type:alpha" maskUnits="userSpaceOnUse" x="0" y="0" width="50" height="50">
<rect width="50" height="50" fill="#D9D9D9"/>
</mask>
<g mask="url(#mask0_132_110)">
<path d="M11.2502 41.6668L8.3335 38.7502L28.3335 18.7502H22.9168V22.9168H18.7502V14.5835H30.8856C31.4411 14.5835 31.9793 14.6877 32.5002 14.896C33.021 15.1043 33.4724 15.3995 33.8543 15.7814L40.1043 21.9793C41.0418 22.9168 42.1877 23.646 43.5418 24.1668C44.896 24.6877 46.3543 24.9654 47.9168 25.0002V29.1668C45.764 29.1668 43.8109 28.837 42.0575 28.1772C40.304 27.5175 38.7502 26.5279 37.396 25.2085L35.3127 23.021L30.7293 27.6043L35.4168 32.2918L21.771 40.1564L19.6877 36.5627L28.646 31.4064L25.1043 27.8647L11.2502 41.6668ZM6.25016 27.0835V22.9168H16.6668V27.0835H6.25016ZM2.0835 20.8335V16.6668H12.5002V20.8335H2.0835ZM40.5731 16.6668C39.4272 16.6668 38.4377 16.2588 37.6043 15.4429C36.771 14.6269 36.3543 13.646 36.3543 12.5002C36.3543 11.3543 36.771 10.3734 37.6043 9.55745C38.4377 8.74148 39.4272 8.3335 40.5731 8.3335C41.7189 8.3335 42.7085 8.74148 43.5418 9.55745C44.3752 10.3734 44.7918 11.3543 44.7918 12.5002C44.7918 13.646 44.3752 14.6269 43.5418 15.4429C42.7085 16.2588 41.7189 16.6668 40.5731 16.6668ZM6.25016 14.5835V10.4168H16.6668V14.5835H6.25016Z" fill="#72AFD3"/>
</g>
</svg>
